<svg xmlns="http://www.w3.org/2000/svg" viewBox="0 0 106 106"><defs><style>.cls-1{fill:#12adb8;}.cls-2{fill:#485761;}.cls-3{fill:#ffc868;}.cls-4{opacity:0.1;}.cls-5{fill:#171c1f;}</style></defs><title>contacts</title><g id="Contacts"><g id="Fill"><rect class="cls-1" x="16" y="2" width="76" height="102" rx="6" ry="6"/></g><g id="Gray"><path class="cls-2" d="M57.31,54.41A14,14,0,0,0,62,44.13c0-5-2.64-9.13-8-9.13s-8,4.09-8,9.13a14.28,14.28,0,0,0,4.6,10.3A15.47,15.47,0,0,0,39,69a2,2,0,0,0,2,2H67a2,2,0,0,0,2-2A15.47,15.47,0,0,0,57.31,54.41Z"/></g><g id="Yellow"><path class="cls-3" d="M86,2H84V104h2a6,6,0,0,0,6-6V8A6,6,0,0,0,86,2Z"/></g><g id="Shadows" class="cls-4"><path d="M47.14,53.55a16.58,16.58,0,0,1-3-7.46,15.22,15.22,0,0,0-.14,2,15.68,15.68,0,0,0,1.39,6.37A17.13,17.13,0,0,1,47.14,53.55ZM64,48.13a15.2,15.2,0,0,0-.14-2.05,16.38,16.38,0,0,1-3,7.44,17.12,17.12,0,0,1,1.78,1A15.42,15.42,0,0,0,64,48.13ZM86,100H22a4,4,0,0,1-4-4v2a4,4,0,0,0,4,4H86a4,4,0,0,0,4-4V96A4,4,0,0,1,86,100ZM41,77H67a4,4,0,0,0,4-4,15.59,15.59,0,0,0-.24-2.68A4,4,0,0,1,67,73H41a4,4,0,0,1-3.76-2.68A15.52,15.52,0,0,0,37,73,4,4,0,0,0,41,77Z"/></g><g id="Inner_Lines_1" data-name="Inner Lines 1"><path d="M82,4v98h2V4ZM60.82,53.52A16,16,0,0,0,64,44.13C64,37.47,60,33,54,33S44,37.47,44,44.13a16.25,16.25,0,0,0,3.14,9.42A17.52,17.52,0,0,0,37,69a4,4,0,0,0,4,4H67a4,4,0,0,0,4-4A17.5,17.5,0,0,0,60.82,53.52ZM67,71H41a2,2,0,0,1-2-2A15.47,15.47,0,0,1,50.6,54.43,14.28,14.28,0,0,1,46,44.13c0-5,2.64-9.13,8-9.13s8,4.09,8,9.13a14,14,0,0,1-4.69,10.28A15.47,15.47,0,0,1,69,69,2,2,0,0,1,67,71Z"/></g><g id="Outline"><path class="cls-5" d="M86,0H22a8,8,0,0,0-8,8v3H12a2,2,0,0,0,0,4h2v6H12a2,2,0,0,0,0,4h2v6H12a2,2,0,0,0,0,4h2v6H12a2,2,0,0,0,0,4h2v6H12a2,2,0,0,0,0,4h2v6H12a2,2,0,0,0,0,4h2v6H12a2,2,0,0,0,0,4h2v6H12a2,2,0,0,0,0,4h2v6H12a2,2,0,0,0,0,4h2v3a8,8,0,0,0,8,8H86a8,8,0,0,0,8-8V8A8,8,0,0,0,86,0Zm4,98a4,4,0,0,1-4,4H22a4,4,0,0,1-4-4V95h2a2,2,0,0,0,0-4H18V85h2a2,2,0,0,0,0-4H18V75h2a2,2,0,0,0,0-4H18V65h2a2,2,0,0,0,0-4H18V55h2a2,2,0,0,0,0-4H18V45h2a2,2,0,0,0,0-4H18V35h2a2,2,0,0,0,0-4H18V25h2a2,2,0,0,0,0-4H18V15h2a2,2,0,0,0,0-4H18V8a4,4,0,0,1,4-4H86a4,4,0,0,1,4,4Z"/></g></g></svg>